# xmcd CD database file
#
# Track frame offsets:
#	150
#	19996
#	38951
#	51726
#	75880
#	100166
#	112776
#	128839
#	139860
#	159382
#	170150
#	184208
#	202124
#
# Disc length: 2902 seconds
#
# Revision: 1
# Processed by: cddbd v1.5.2PL0 Copyright (c) Steve Scherf et al.
# Submitted via: jetAudio 7
#
DISCID=b30b540d
DTITLE=Sweet Baby James (aka James Meston) - Rob Eyers - Double VoodooBl
DTITLE=ues
DYEAR=2010
DGENRE=Blues
TTITLE0=Shopping Cart
TTITLE1=Easier On Me
TTITLE2=Talkin Me Down
TTITLE3=No Love
TTITLE4=Ladys Almost West
TTITLE5=Come Over Here
TTITLE6=Refugee Child
TTITLE7=Getting Your Letters
TTITLE8=Devil and The Grave
TTITLE9=Evil Tongue
TTITLE10=Thunder From The Sky
TTITLE11=Hot Plate
TTITLE12=Trouble and Strife
EXTD=
EXTT0=
EXTT1=
EXTT2=
EXTT3=
EXTT4=
EXTT5=
EXTT6=
EXTT7=
EXTT8=
EXTT9=
EXTT10=
EXTT11=
EXTT12=
PLAYORDER=
